# xmcd
#
# Track frame offsets: 
#        150
#        40150
#        58712
#        76500
#        126300
#        172122
#        226135
#
# Disc length: 3375 seconds
#
# Revision: 1
# Processed by: cddbd v1.5.2PL0 Copyright (c) Steve Scherf et al.
# Submitted via: ExactAudioCopy v1.0b3
#
DISCID=500d2d07
DTITLE=Leimgruber, Urs and Brennan, John Wolf - Mountain Hymn
DYEAR=1998
DGENRE=Jazz
TTITLE0=Mountain Hymn
TTITLE1=Echo: Raindrops Through A Dark Cloud
TTITLE2=The Source Of It
TTITLE3=Nagaswaram
TTITLE4=Dirtsa
TTITLE5=Down The Sink
TTITLE6=Kiki
EXTD=YEAR: 1998
EXTT0=
EXTT1=
EXTT2=
EXTT3=
EXTT4=
EXTT5=
EXTT6=
PLAYORDER=
